<svg xmlns="http://www.w3.org/2000/svg" xmlns:xlink="http://www.w3.org/1999/xlink" preserveAspectRatio="xMidYMid" width="8.09" height="20" viewBox="0 0 8.09 20">
  <defs>
    <style>
      .cls-1 {
        fill: #fff;
        fill-rule: evenodd;
      }
    </style>
  </defs>
  <path d="M1.839,6.539 L0.000,6.539 L0.000,9.957 L1.839,9.957 L1.839,20.000 L5.376,20.000 L5.376,9.914 L7.843,9.914 L8.105,6.539 L5.376,6.539 C5.376,6.539 5.376,5.278 5.376,4.615 C5.376,3.819 5.516,3.504 6.192,3.504 C6.736,3.504 8.105,3.504 8.105,3.504 L8.105,-0.000 C8.105,-0.000 6.088,-0.000 5.657,-0.000 C3.025,-0.000 1.839,1.319 1.839,3.846 C1.839,6.047 1.839,6.539 1.839,6.539 Z" class="cls-1"/>
</svg>
