<svg xmlns="http://www.w3.org/2000/svg" xmlns:xlink="http://www.w3.org/1999/xlink" preserveAspectRatio="xMidYMid" width="18.53" height="18.81" viewBox="0 0 18.53 18.81">
  <defs>
    <style>
      .cls-1 {
        fill: #fff;
        fill-rule: evenodd;
      }
    </style>
  </defs>
  <path d="M16.404,7.949 L14.792,7.949 C14.909,8.413 14.978,8.897 14.978,9.398 C14.978,12.597 12.427,15.190 9.278,15.190 C6.130,15.190 3.578,12.597 3.578,9.398 C3.578,8.897 3.648,8.413 3.765,7.949 L2.153,7.949 L2.153,15.913 C2.153,16.313 2.472,16.637 2.866,16.637 L15.691,16.637 C16.085,16.637 16.404,16.313 16.404,15.913 L16.404,7.949 L16.404,7.949 ZM16.404,2.882 C16.404,2.482 16.085,2.158 15.691,2.158 L13.554,2.158 C13.160,2.158 12.842,2.482 12.842,2.882 L12.842,5.054 C12.842,5.454 13.160,5.778 13.554,5.778 L15.691,5.778 C16.085,5.778 16.404,5.454 16.404,5.054 L16.404,2.882 ZM9.278,5.778 C7.311,5.778 5.716,7.398 5.716,9.398 C5.716,11.397 7.311,13.018 9.278,13.018 C11.246,13.018 12.842,11.397 12.842,9.398 C12.842,7.398 11.246,5.778 9.278,5.778 M16.404,18.810 L2.153,18.810 C0.972,18.810 0.015,17.837 0.015,16.637 L0.015,2.158 C0.015,0.958 0.972,-0.014 2.153,-0.014 L16.404,-0.014 C17.585,-0.014 18.542,0.958 18.542,2.158 L18.542,16.637 C18.542,17.837 17.585,18.810 16.404,18.810 " class="cls-1"/>
</svg>
