<svg xmlns="http://www.w3.org/2000/svg" xmlns:xlink="http://www.w3.org/1999/xlink" preserveAspectRatio="xMidYMid" width="18.53" height="16.47" viewBox="0 0 18.53 16.47">
  <defs>
    <style>
      .cls-1 {
        fill: #fff;
        fill-rule: evenodd;
      }
    </style>
  </defs>
  <path d="M18.530,1.962 C17.848,2.293 17.116,2.517 16.347,2.617 C17.132,2.103 17.735,1.288 18.018,0.317 C17.284,0.793 16.470,1.139 15.605,1.326 C14.911,0.517 13.923,0.013 12.830,0.013 C10.377,0.013 8.573,2.517 9.128,5.118 C5.969,4.945 3.168,3.289 1.293,0.774 C0.298,2.642 0.777,5.088 2.470,6.325 C1.847,6.304 1.261,6.117 0.748,5.805 C0.707,7.731 1.969,9.533 3.797,9.935 C3.262,10.094 2.676,10.130 2.080,10.006 C2.564,11.658 3.968,12.860 5.631,12.893 C4.033,14.263 2.020,14.875 0.004,14.615 C1.686,15.795 3.684,16.483 5.830,16.483 C12.887,16.483 16.874,9.963 16.634,4.115 C17.376,3.528 18.021,2.796 18.530,1.962 Z" class="cls-1"/>
</svg>
