<svg xmlns="http://www.w3.org/2000/svg" xmlns:xlink="http://www.w3.org/1999/xlink" preserveAspectRatio="xMidYMid" width="16" height="20" viewBox="0 0 16 20">
  <defs>
    <style>
      .cls-1 {
        fill: #fff;
        fill-rule: evenodd;
      }
    </style>
  </defs>
  <path d="M9.869,12.762 C9.536,13.103 9.818,13.722 9.818,13.722 L12.329,17.964 C12.329,17.964 12.741,18.524 13.098,18.524 C13.457,18.524 13.811,18.225 13.811,18.225 L15.796,15.354 C15.796,15.354 15.996,14.992 16.000,14.675 C16.007,14.224 15.335,14.100 15.335,14.100 L10.636,12.573 C10.636,12.573 10.176,12.449 9.869,12.762 ZM9.631,10.624 C9.872,11.037 10.535,10.916 10.535,10.916 L15.223,9.529 C15.223,9.529 15.862,9.267 15.953,8.916 C16.043,8.565 15.848,8.142 15.848,8.142 L13.607,5.471 C13.607,5.471 13.413,5.133 13.010,5.099 C12.566,5.061 12.293,5.605 12.293,5.605 L9.644,9.824 C9.644,9.824 9.410,10.244 9.631,10.624 ZM7.416,8.979 C7.969,8.842 8.056,8.030 8.056,8.030 L8.018,1.275 C8.018,1.275 7.935,0.441 7.565,0.216 C6.985,-0.141 6.813,0.045 6.647,0.070 L2.754,1.534 C2.754,1.534 2.373,1.662 2.175,1.984 C1.891,2.440 2.463,3.107 2.463,3.107 L6.509,8.688 C6.509,8.688 6.908,9.106 7.416,8.979 ZM6.455,11.713 C6.469,11.192 5.837,10.879 5.837,10.879 L1.653,8.740 C1.653,8.740 1.033,8.481 0.732,8.661 C0.502,8.799 0.297,9.049 0.278,9.269 L0.005,12.664 C0.005,12.664 -0.036,13.253 0.115,13.520 C0.328,13.900 1.030,13.635 1.030,13.635 L5.914,12.543 C6.104,12.414 6.437,12.402 6.455,11.713 ZM7.670,13.545 C7.250,13.327 6.749,13.778 6.749,13.778 L3.478,17.422 C3.478,17.422 3.070,17.979 3.174,18.322 C3.272,18.642 3.434,18.802 3.663,18.914 L6.947,19.963 C6.947,19.963 7.345,20.047 7.647,19.958 C8.075,19.833 7.996,19.155 7.996,19.155 L8.070,14.221 C8.070,14.221 8.053,13.746 7.670,13.545 Z" class="cls-1"/>
</svg>
